#!OML:ASF E:/inclinewalkrobotboard/Project1/Captureday1/Session1/subject1.ASF
:FULLY-SPECIFIED
:DEGREES
251
root 0 0 0 -2.1965768925616067 -5.882479105638841 -6.001840797024059
lowerback 11.74912290653167 2.596795463370556 5.75261618553247
upperback 1.735416855751119 4.147035156600225 1.2860531478203403
thorax -4.582138778755025 1.9292686496686131 -2.4605134160584936
lowerneck -16.677004594894854 -3.6112851919879203 -2.3470083673224766
upperneck 20.55945982625697 -4.7865956361987845 1.2908453151192547
head 9.172621539016383 -2.2649978372846906 0.19824422520974727
rclavicle -2.811876617022218E-15 1.685243541354996E-15
rhumerus -29.001662713681753 -15.04406022290594 -82.60773160073862
rradius 28.43422836450259
rwrist 10.321209927314015
rhand -20.336506404921277 29.25954771351436
rfingers 7.125019999999996
rthumb 6.036348988735766 -0.8028079506081554
lclavicle -6.967829137146493E-15 9.170181401702488E-16
lhumerus -31.223884883294424 1.4679372548155132 84.77319969816418
lradius 23.358877426391643
lwrist 4.485713323806031
lhand -27.954619667599502 26.832370679697863
lfingers 7.125020000000046
lthumb -1.3529198499268116 56.85280228347363
rfemur 0.6591014047675001 6.357378395359253 28.757810483670923
rtibia 27.97434853944632
rfoot -13.184251304001384 -4.534522874305932
rtoes -1.2340840070828152
lfemur -23.95813128851446 -3.7133171285431272 -15.195412396549672
ltibia 21.979814521261005
lfoot -8.758512510090949 3.990707654192962
ltoes -0.09283173766679198
252
root 0 0 0 -2.380513291631651 -5.717414548156897 -5.300101552378978
lowerback 11.701395362203408 2.6133574661521477 5.16055139341922
upperback 1.8853548228262853 4.081616954659091 1.077321187272623
thorax -4.399863769146052 1.9077710511525592 -2.3281232958953897
lowerneck -16.51212955804673 -3.6536517324559714 -2.5028904750096794
upperneck 20.514233979606587 -4.873244111731671 1.5338555585093092
head 9.087549998138027 -2.2916474072664927 0.29356251316848225
rclavicle -2.398720061086276E-15 1.6863461350145105E-15
rhumerus -29.29362687679888 -16.100767485644887 -82.51082096759686
rradius 27.87298231102042
rwrist 11.219089852149889
rhand -20.31256506916721 28.805646778795946
rfingers 7.125019999999995
rthumb 6.0593027418574765 -1.2633626200478432
lclavicle -6.500514475761903E-15 9.834360124653008E-16
lhumerus -32.00583564928539 2.38643425937312 84.0998926477477
lradius 22.7188428545
lwrist 3.9677594726059064
lhand -27.832043171978782 26.899116063868455
lfingers 7.125020000000048
lthumb -1.2368631536183319 56.898066539226555
rfemur 0.6188371444553358 4.645286892644414 24.94540096078761
rtibia 33.96121998265205
rfoot -6.373095431930967 -2.7418517155943802
rtoes 1.454091411181179
lfemur -21.9090434004354 -3.847552776960521 -16.062761149685368
ltibia 21.619446286463525
lfoot -9.076780133978708 3.6153149586761946
ltoes 0.16930371588777504
253
root 0 0 0 -2.9593234063017286 -5.365081809005803 -3.6626726741426854
lowerback 12.01712330235295 2.452496092580758 3.5792941311625492
upperback 2.2462500072414295 3.675411545803203 0.8048705948029223
thorax -4.201006824093744 1.738487082488979 -1.6557967965226545
lowerneck -16.22313020742921 -3.7007262091885194 -2.6664372433044963
upperneck 20.458427155069774 -4.931375586695451 1.7481906857385914
head 9.004233351499309 -2.31027798062421 0.3826943374417937
rclavicle -2.3062120153135376E-15 1.7321298404436077E-15
rhumerus -29.79452367680529 -17.40007924862973 -82.29326740324353
rradius 27.00809141375386
rwrist 11.962561324025742
rhand -20.20672417795348 28.243552457045915
rfingers 7.125019999999995
rthumb 6.16198080530602 -1.822917717377365
lclavicle -6.2923414938936026E-15 1.0248903124960515E-15
lhumerus -32.859597912794186 3.3224287201715565 83.53070945926783
lradius 22.031603245360227
lwrist 3.4412880211275527
lhand -27.68328956188978 26.954707544043114
lfingers 7.125020000000051
lthumb -1.0966542011840312 56.92946252741952
rfemur -4.5062772022563955 2.6106824184923494 22.781698133281573
rtibia 49.03962416666128
rfoot 1.8333923888001094 -1.8403191239626886
rtoes 6.903115992603019
lfemur -18.276043927199744 -3.920225747996101 -17.586292811628237
ltibia 21.254183966781156
lfoot -9.521328996966634 2.838836675216207
ltoes 0.06235062379133893
254
root 0 0 0 -4.843767865096688 -4.67253634728514 0.416223415063913
lowerback 13.769928751212237 1.5863548237951004 -0.6297970202899963
upperback 2.7435985786008974 2.0385527319696837 0.30104556470640254
thorax -4.702364946678428 1.0161469637841287 0.42377953942568813
lowerneck -15.721325844889972 -3.605595018789965 -2.513013644709392
upperneck 17.02030892367585 -4.689118648912634 1.7651496297054146
head 7.882516101941872 -2.2233975427840553 0.4297849914290226
rclavicle -2.8524064936529845E-15 2.108769957872648E-15
rhumerus -30.41848217870477 -18.862969092623047 -81.98586755949985
rradius 25.98797403172287
rwrist 12.465179964923014
rhand -20.083400824630324 27.66283403704515
rfingers 7.125019999999997
rthumb 6.2823983750138845 -2.398747881800567
lclavicle -6.913077314286576E-15 1.4061925033413352E-15
lhumerus -32.391167185266184 3.0033790450892806 83.50440727448334
lradius 22.303873514958603
lwrist 3.6545705320602453
lhand -27.82671408433621 26.957457743136786
lfingers 7.12502000000005
lthumb -1.238626534796479 56.94442582156784
rfemur -16.537096341475323 0.8495813124653395 20.284989580958737
rtibia 60.51329061285761
rfoot 5.9158007190125215 -3.671677122698903
rtoes 9.796911598621435
lfemur -8.14328050857313 -4.192551619589269 -22.164233639536757
ltibia 19.551974009368244
lfoot -11.89047174870633 1.4480160237410011
ltoes -0.38507538854693735
255
root 0 0 0 -4.884914300407301 -3.8215111581960537 2.8021544185014897
lowerback 13.592194052145963 0.9160767136053193 -3.0698311353147743
upperback 2.4636237025912 0.8518423927075807 0.13796532341123435
thorax -4.889190528231055 0.4925109632294241 1.7947464061744451
lowerneck -14.976524362136919 -3.2815747726049898 -2.5501246263874906
upperneck 16.557466240824365 -4.210515396198676 2.0160908912890214
head 7.603917957295785 -2.0003030670173603 0.588574044721605
rclavicle -2.304331505368447E-15 3.2449941157962687E-15
rhumerus -30.78849571578787 -20.52114296432245 -81.42087690685548
rradius 25.253578746915487
rwrist 12.650906639394766
rhand -19.98553596139357 26.92764825663027
rfingers 7.125019999999998
rthumb 6.3767168812874075 -3.1419497943633274
lclavicle -5.518750792040329E-15 2.954482695594581E-15
lhumerus -30.008507198485784 0.43288960535168786 83.75942978356369
lradius 24.950956631703406
lwrist 5.279014069800674
lhand -28.29122666303642 26.651713431752636
lfingers 7.125020000000041
lthumb -1.684253269545538 56.68903732688884
rfemur -22.263361354435784 -0.3912706806999795 16.758440940070084
rtibia 60.86516101817369
rfoot 6.432210825982194 -4.619059629804447
rtoes 9.236631201811598
lfemur 2.1580604613409937 -4.714148234739053 -26.705779604492065
ltibia 18.340382341222934
lfoot -15.351396997424208 0.7157489900438954
ltoes -0.2758835439146665
